<?xml version="1.0" encoding="utf-8"?><!-- Uploaded to: SVG Repo, www.svgrepo.com, Generator: SVG Repo Mixer Tools -->
<svg width="800px" height="800px" viewBox="0 0 64 64" fill="none" xmlns="http://www.w3.org/2000/svg">
<path d="M38.187 31.6671C38.188 32.8142 37.8488 33.9358 37.2124 34.8901C36.5759 35.8445 35.6708 36.5886 34.6114 37.0286C33.552 37.4685 32.386 37.5844 31.2608 37.3617C30.1355 37.1389 29.1016 36.5875 28.2897 35.7772C27.4778 34.9668 26.9244 33.9339 26.6996 32.8091C26.4747 31.6843 26.5884 30.518 27.0263 29.4578C27.4642 28.3976 28.2067 27.4911 29.1598 26.8528C30.1129 26.2146 31.2339 25.8733 32.381 25.8721C33.9189 25.8723 35.3938 26.4826 36.4823 27.569C37.5708 28.6554 38.1838 30.1292 38.187 31.6671V31.6671Z" stroke="#000000" stroke-width="4" stroke-linecap="round" stroke-linejoin="round"/>
<path d="M54.146 37.7311L49.603 33.372C49.657 32.811 49.69 32.239 49.69 31.667C49.69 31.095 49.657 30.523 49.603 29.962L54.136 25.57C54.593 25.1303 54.8893 24.55 54.9772 23.9219C55.0651 23.2938 54.9397 22.6544 54.621 22.1061L51.772 17.1641C51.4535 16.6125 50.9597 16.1832 50.3692 15.9445C49.7787 15.7059 49.1253 15.6716 48.513 15.8471L42.46 17.6061C41.5397 16.9386 40.5524 16.3689 39.514 15.906L37.981 9.78105C37.8289 9.16394 37.474 8.61581 36.9731 8.2245C36.4723 7.83319 35.8546 7.62139 35.219 7.62306H29.511C28.8743 7.62387 28.2563 7.83793 27.7554 8.23107C27.2546 8.62421 26.9 9.17377 26.748 9.79205L25.237 15.8991C24.1987 16.3621 23.2114 16.9318 22.291 17.5991L16.227 15.8621C15.6164 15.6878 14.965 15.723 14.3767 15.9621C13.7884 16.2011 13.297 16.6303 12.981 17.1811L10.121 22.124C9.8039 22.6775 9.68087 23.3211 9.77147 23.9526C9.86206 24.584 10.1611 25.167 10.621 25.609L15.164 29.969C15.11 30.53 15.077 31.091 15.077 31.663C15.077 32.235 15.11 32.817 15.164 33.378L10.632 37.76C10.175 38.1996 9.87877 38.7797 9.79066 39.4076C9.70254 40.0355 9.82767 40.6747 10.146 41.223L12.995 46.1761C13.3142 46.7265 13.8086 47.1543 14.3993 47.391C14.99 47.6277 15.643 47.6597 16.254 47.4821L22.307 45.7341C23.23 46.3957 24.2169 46.9632 25.253 47.4281L26.785 53.5581C26.9402 54.1728 27.2964 54.718 27.7971 55.107C28.2977 55.496 28.914 55.7065 29.548 55.7051H35.251C35.8861 55.7043 36.5027 55.4916 37.0032 55.1007C37.5037 54.7098 37.8595 54.163 38.014 53.5471L39.525 47.4281C40.5598 46.9651 41.5435 46.3954 42.46 45.7281L48.535 47.4661C49.1457 47.641 49.7974 47.6063 50.3861 47.3676C50.9748 47.1289 51.4666 46.6999 51.783 46.1491L54.643 41.2071C54.9603 40.6554 55.0837 40.0134 54.9937 39.3834C54.9036 38.7534 54.6052 38.1717 54.146 37.7311V37.7311ZM32.381 37.4721C31.2343 37.4709 30.1138 37.1298 29.1608 36.492C28.2079 35.8542 27.4655 34.9482 27.0273 33.8886C26.589 32.829 26.4747 31.6632 26.6988 30.5387C26.9229 29.4141 27.4752 28.3812 28.2861 27.5705C29.097 26.7597 30.13 26.2075 31.2546 25.9837C32.3792 25.7598 33.5449 25.8743 34.6045 26.3127C35.664 26.7511 36.5699 27.4937 37.2075 28.4467C37.8452 29.3997 38.186 30.5204 38.187 31.667C38.1877 32.4296 38.0379 33.1849 37.7464 33.8895C37.4548 34.5942 37.0271 35.2344 36.4879 35.7736C35.9486 36.3128 35.3083 36.7404 34.6036 37.0318C33.8989 37.3232 33.1436 37.4728 32.381 37.4721V37.4721Z" stroke="#000000" stroke-width="4" stroke-linecap="round" stroke-linejoin="round"/>
<path d="M38.187 31.6671C38.188 32.8142 37.8488 33.9358 37.2124 34.8901C36.5759 35.8445 35.6708 36.5886 34.6114 37.0286C33.552 37.4685 32.386 37.5844 31.2608 37.3617C30.1355 37.1389 29.1016 36.5875 28.2897 35.7772C27.4778 34.9668 26.9244 33.9339 26.6996 32.8091C26.4747 31.6843 26.5884 30.518 27.0263 29.4578C27.4642 28.3976 28.2067 27.4911 29.1598 26.8528C30.1129 26.2146 31.2339 25.8733 32.381 25.8721C33.9189 25.8723 35.3938 26.4826 36.4823 27.569C37.5708 28.6554 38.1838 30.1292 38.187 31.6671V31.6671Z" stroke="#426AB2" stroke-width="4" stroke-linecap="round" stroke-linejoin="round"/>
</svg>