<?xml version="1.0" encoding="iso-8859-1"?>
<!-- Uploaded to: SVG Repo, www.svgrepo.com, Generator: SVG Repo Mixer Tools -->
<svg fill="#000000" height="800px" width="800px" version="1.1" id="Capa_1" xmlns="http://www.w3.org/2000/svg" xmlns:xlink="http://www.w3.org/1999/xlink" 
	 viewBox="0 0 488.6 488.6" xml:space="preserve">
<g>
	<path d="M320.5,36.336H168.1c-92.9,0-168.1,75.3-168.1,168.1c0,74.3,48.2,137.2,115,159.4v80.1c0,7.4,9,11.1,14.2,5.9l77.3-77.3
		h114c92.8,0,168.1-75.3,168.1-168.1C488.6,111.636,413.4,36.336,320.5,36.336z M307,239.936l-27.3,27.3l-35.4-35.4l-35.4,35.4
		l-27.3-27.3l35.4-35.4l-35.4-35.4l27.3-27.3l35.4,35.4l35.4-35.4l27.3,27.3l-35.4,35.4L307,239.936z"/>
</g>
</svg>