<?xml version="1.0" encoding="utf-8"?>

<!DOCTYPE svg PUBLIC "-//W3C//DTD SVG 1.0//EN" "http://www.w3.org/TR/2001/REC-SVG-20010904/DTD/svg10.dtd">
<!-- Uploaded to: SVG Repo, www.svgrepo.com, Generator: SVG Repo Mixer Tools -->
<svg version="1.0" id="Layer_1" xmlns="http://www.w3.org/2000/svg" xmlns:xlink="http://www.w3.org/1999/xlink" 
	 width="800px" height="800px" viewBox="0 0 64 64" enable-background="new 0 0 64 64" xml:space="preserve">
<g>
	<path fill="#394240" d="M32,0c-7.395,0-14.18,2.531-19.602,6.742L6.984,1.328C5.422-0.234,2.781-0.348,1.219,1.219
		c-1.562,1.562-1.453,4.203,0.109,5.766l5.414,5.414C2.531,17.82,0,24.605,0,32c0,17.672,14.328,32,32,32s32-14.328,32-32
		S49.672,0,32,0z M32,56C18.746,56,8,45.254,8,32c0-5.18,1.66-9.969,4.453-13.891l5.809,5.812C16.859,26.297,16,29.039,16,32
		c0,8.836,7.164,16,16,16s16-7.164,16-16s-7.164-16-16-16c-2.961,0-5.703,0.859-8.082,2.266l-5.809-5.812C22.031,9.66,26.816,8,32,8
		c13.254,0,24,10.746,24,24S45.254,56,32,56z M29.172,34.828c1.562,1.562,4.094,1.562,5.656,0c1.566-1.562,1.562-4.094,0-5.656
		l-4.875-4.875C30.609,24.125,31.289,24,32,24c4.418,0,8,3.582,8,8s-3.582,8-8,8s-8-3.582-8-8c0-0.711,0.121-1.391,0.297-2.047
		L29.172,34.828z"/>
	<path fill="#F9EBB2" d="M32,56C18.746,56,8,45.254,8,32c0-5.18,1.66-9.969,4.453-13.891l5.809,5.812C16.859,26.297,16,29.039,16,32
		c0,8.836,7.164,16,16,16s16-7.164,16-16s-7.164-16-16-16c-2.961,0-5.703,0.859-8.082,2.266l-5.809-5.812C22.031,9.66,26.816,8,32,8
		c13.254,0,24,10.746,24,24S45.254,56,32,56z"/>
	<path fill="#F76D57" d="M29.172,34.828c1.562,1.562,4.094,1.562,5.656,0c1.566-1.562,1.562-4.094,0-5.656l-4.875-4.875
		C30.609,24.125,31.289,24,32,24c4.418,0,8,3.582,8,8s-3.582,8-8,8s-8-3.582-8-8c0-0.711,0.121-1.391,0.297-2.047L29.172,34.828z"/>
</g>
</svg>