<?xml version="1.0" ?>
<!-- Uploaded to: SVG Repo, www.svgrepo.com, Generator: SVG Repo Mixer Tools -->
<svg width="800px" height="800px" viewBox="0 0 6.3500002 6.3500002" id="svg1976" version="1.1" xmlns="http://www.w3.org/2000/svg" xmlns:cc="http://creativecommons.org/ns#" xmlns:dc="http://purl.org/dc/elements/1.1/" xmlns:inkscape="http://www.inkscape.org/namespaces/inkscape" xmlns:rdf="http://www.w3.org/1999/02/22-rdf-syntax-ns#" xmlns:sodipodi="http://sodipodi.sourceforge.net/DTD/sodipodi-0.dtd" xmlns:svg="http://www.w3.org/2000/svg">
<defs id="defs1970"/>
<g id="layer1" style="display:inline">
<path d="M 3.7952208,0.0066805 C 3.6382726,0.0165918 3.4856556,0.05861054 3.3446009,0.14000564 2.9684613,0.35705367 2.7902036,0.78519635 2.7740931,1.2407136 2.75798,1.6962396 2.8922296,2.2034334 3.1704522,2.6850698 3.4486721,3.1667065 3.8218908,3.5383657 4.2246501,3.7521884 4.6274068,3.9660022 5.0866785,4.0240134 5.4628181,3.8069654 5.8389657,3.589912 6.0166995,3.1643583 6.03281,2.7088411 6.0489231,2.2533151 5.9151895,1.7435373 5.6369669,1.2619009 5.3587469,0.78026451 4.9850124,0.41118901 4.582253,0.19736651 4.3305311,0.06373261 4.0567984,-0.00983637 3.7952208,0.0066805 Z m 0.5038434,1.2485026 c 0.053951,0.00398 0.106336,0.012933 0.1570963,0.026872 0.2030413,0.05575 0.3755417,0.1863508 0.4728396,0.3576007 0.194601,0.3425003 0.1026345,0.8572334 -0.3343461,1.1110434 A 0.26458299,0.26458299 0 0 1 4.2334369,2.6550976 0.26458299,0.26458299 0 0 1 4.3290388,2.2938794 C 4.5555274,2.1623293 4.5373347,2.0194284 4.4701147,1.9011385 4.4029052,1.7828385 4.298871,1.6970556 4.063421,1.8329255 A 0.26458299,0.26458299 0 0 1 3.7022012,1.7352572 0.26458299,0.26458299 0 0 1 3.7978031,1.3740387 C 3.9636281,1.2783464 4.1372132,1.2432539 4.2990642,1.2551831 Z" id="ellipse790" style="color:#000000;font-style:normal;font-variant:normal;font-weight:normal;font-stretch:normal;font-size:medium;line-height:normal;font-family:sans-serif;font-variant-ligatures:normal;font-variant-position:normal;font-variant-caps:normal;font-variant-numeric:normal;font-variant-alternates:normal;font-variant-east-asian:normal;font-feature-settings:normal;font-variation-settings:normal;text-indent:0;text-align:start;text-decoration:none;text-decoration-line:none;text-decoration-style:solid;text-decoration-color:#000000;letter-spacing:normal;word-spacing:normal;text-transform:none;writing-mode:lr-tb;direction:ltr;text-orientation:mixed;dominant-baseline:auto;baseline-shift:baseline;text-anchor:start;white-space:normal;shape-padding:0;shape-margin:0;inline-size:0;clip-rule:nonzero;display:inline;overflow:visible;visibility:visible;isolation:auto;mix-blend-mode:normal;color-interpolation:sRGB;color-interpolation-filters:linearRGB;solid-color:#000000;solid-opacity:1;vector-effect:none;fill:#000000;fill-opacity:1;fill-rule:nonzero;stroke:none;stroke-width:0.529167;stroke-linecap:round;stroke-linejoin:round;stroke-miterlimit:4;stroke-dasharray:none;stroke-dashoffset:0;stroke-opacity:1;paint-order:stroke fill markers;color-rendering:auto;image-rendering:auto;shape-rendering:auto;text-rendering:auto;enable-background:accumulate;stop-color:#000000"/>
<path d="M 2.4573181,1.1554474 1.2434388,2.6571648 c -0.068794,0.085165 -0.078039,0.203903 -0.023257,0.2986897 l 0.7420716,1.2831257 c 0.054549,0.094429 0.1614435,0.1457209 0.2692347,0.129191 L 4.1398988,4.0689648 C 3.6781029,3.8097766 3.2513829,3.3787653 2.9306709,2.8235628 2.6098107,2.2681317 2.4507934,1.6848062 2.4573154,1.1554474 Z" id="path792" style="color:#000000;font-style:normal;font-variant:normal;font-weight:normal;font-stretch:normal;font-size:medium;line-height:normal;font-family:sans-serif;font-variant-ligatures:normal;font-variant-position:normal;font-variant-caps:normal;font-variant-numeric:normal;font-variant-alternates:normal;font-variant-east-asian:normal;font-feature-settings:normal;font-variation-settings:normal;text-indent:0;text-align:start;text-decoration:none;text-decoration-line:none;text-decoration-style:solid;text-decoration-color:#000000;letter-spacing:normal;word-spacing:normal;text-transform:none;writing-mode:lr-tb;direction:ltr;text-orientation:mixed;dominant-baseline:auto;baseline-shift:baseline;text-anchor:start;white-space:normal;shape-padding:0;shape-margin:0;inline-size:0;clip-rule:nonzero;display:inline;overflow:visible;visibility:visible;isolation:auto;mix-blend-mode:normal;color-interpolation:sRGB;color-interpolation-filters:linearRGB;solid-color:#000000;solid-opacity:1;vector-effect:none;fill:#000000;fill-opacity:1;fill-rule:nonzero;stroke:none;stroke-width:0.529167;stroke-linecap:round;stroke-linejoin:round;stroke-miterlimit:4;stroke-dasharray:none;stroke-dashoffset:0;stroke-opacity:1;paint-order:stroke fill markers;color-rendering:auto;image-rendering:auto;shape-rendering:auto;text-rendering:auto;enable-background:accumulate;stop-color:#000000"/>
<path d="m 1.3800524,2.5613588 a 0.26460945,0.26460945 0 0 0 -0.10742,0.0352 l -0.33008,0.18945 c -0.62403,0.3601 -0.76385,1.02592 -0.5,1.47461 0.26385,0.44869 0.90874,0.65633 1.52539,0.30274 a 0.26460945,0.26460945 0 0 0 0.002,0 l 0.33008,-0.19141 a 0.26460945,0.26460945 0 0 0 0.0957,-0.36133 l -0.76171,-1.31836 a 0.26460945,0.26460945 0 0 0 -0.25391,-0.13086 z" id="path794" style="color:#000000;font-style:normal;font-variant:normal;font-weight:normal;font-stretch:normal;font-size:medium;line-height:normal;font-family:sans-serif;font-variant-ligatures:normal;font-variant-position:normal;font-variant-caps:normal;font-variant-numeric:normal;font-variant-alternates:normal;font-variant-east-asian:normal;font-feature-settings:normal;font-variation-settings:normal;text-indent:0;text-align:start;text-decoration:none;text-decoration-line:none;text-decoration-style:solid;text-decoration-color:#000000;letter-spacing:normal;word-spacing:normal;text-transform:none;writing-mode:lr-tb;direction:ltr;text-orientation:mixed;dominant-baseline:auto;baseline-shift:baseline;text-anchor:start;white-space:normal;shape-padding:0;shape-margin:0;inline-size:0;clip-rule:nonzero;display:inline;overflow:visible;visibility:visible;isolation:auto;mix-blend-mode:normal;color-interpolation:sRGB;color-interpolation-filters:linearRGB;solid-color:#000000;solid-opacity:1;vector-effect:none;fill:#000000;fill-opacity:1;fill-rule:nonzero;stroke:none;stroke-width:0.529167;stroke-linecap:round;stroke-linejoin:round;stroke-miterlimit:4;stroke-dasharray:none;stroke-dashoffset:0;stroke-opacity:1;paint-order:stroke fill markers;color-rendering:auto;image-rendering:auto;shape-rendering:auto;text-rendering:auto;enable-background:accumulate;stop-color:#000000"/>
<path d="M 2.6655743,4.4317334 A 0.33343293,0.33343293 0 0 1 2.5415508,4.5593742 L 2.1255544,4.8007031 a 0.33343293,0.33343293 0 0 1 -0.0031,0 C 1.753402,5.0123182 1.3779609,5.0602559 1.0481049,4.9960399 l 0.5389853,0.9348267 a 0.26460945,0.26460945 0 0 0 0.00413,0.00568 c 0.2121985,0.34299 0.7000082,0.545024 1.1404997,0.3028239 a 0.26460945,0.26460945 0 0 0 0.00619,-0.00206 C 3.13762,6.0066499 3.2751901,5.4886796 3.0443518,5.0890595 Z" id="path796" style="color:#000000;font-style:normal;font-variant:normal;font-weight:normal;font-stretch:normal;font-size:medium;line-height:normal;font-family:sans-serif;font-variant-ligatures:normal;font-variant-position:normal;font-variant-caps:normal;font-variant-numeric:normal;font-variant-alternates:normal;font-variant-east-asian:normal;font-feature-settings:normal;font-variation-settings:normal;text-indent:0;text-align:start;text-decoration:none;text-decoration-line:none;text-decoration-style:solid;text-decoration-color:#000000;letter-spacing:normal;word-spacing:normal;text-transform:none;writing-mode:lr-tb;direction:ltr;text-orientation:mixed;dominant-baseline:auto;baseline-shift:baseline;text-anchor:start;white-space:normal;shape-padding:0;shape-margin:0;inline-size:0;clip-rule:nonzero;display:inline;overflow:visible;visibility:visible;isolation:auto;mix-blend-mode:normal;color-interpolation:sRGB;color-interpolation-filters:linearRGB;solid-color:#000000;solid-opacity:1;vector-effect:none;fill:#000000;fill-opacity:1;fill-rule:nonzero;stroke:none;stroke-width:0.529167;stroke-linecap:round;stroke-linejoin:round;stroke-miterlimit:4;stroke-dasharray:none;stroke-dashoffset:0;stroke-opacity:1;paint-order:stroke fill markers;color-rendering:auto;image-rendering:auto;shape-rendering:auto;text-rendering:auto;enable-background:accumulate;stop-color:#000000"/>
</g>
</svg>