<svg version="1.1" id="Layer_1" xmlns="http://www.w3.org/2000/svg" xmlns:xlink="http://www.w3.org/1999/xlink" x="0px" y="0px"
	 width="100%" viewBox="0 0 512 512" enable-background="new 0 0 512 512" xml:space="preserve">
<path fill="#000000" opacity="1.000000" stroke="none" 
	d="
M1.000002,285.000000 
	C1.000000,190.371201 1.000000,95.742416 1.000000,1.056809 
	C171.560486,1.056809 342.121002,1.056809 513.000000,1.056809 
	C513.000000,95.355736 513.000000,189.711838 512.654175,284.839783 
	C511.881287,284.948456 511.190613,284.331421 511.065186,283.615387 
	C505.857971,253.884979 493.376740,227.197021 477.431091,201.891800 
	C478.808929,195.269897 480.036652,188.883026 480.782990,182.440384 
	C481.685028,174.653275 482.179291,166.818909 482.917603,158.538895 
	C482.323395,140.911652 482.453094,123.669678 480.711456,106.618858 
	C479.616638,95.900307 475.715240,85.468437 473.040344,74.519150 
	C468.685883,59.241665 459.794281,48.402645 445.166534,42.598358 
	C436.140503,39.016830 427.023651,38.535828 417.332825,39.796524 
	C404.070160,41.521881 391.040924,43.827946 378.323120,47.989719 
	C358.481293,54.482765 340.050293,63.573475 323.574097,77.082985 
	C313.449036,85.107124 304.356720,93.712898 296.476807,103.967934 
	C285.778137,103.329803 275.508179,102.060135 265.248535,102.138504 
	C249.175385,102.261299 233.109177,103.294907 216.911407,103.627983 
	C208.862793,93.553024 200.197128,84.547974 189.958527,76.667419 
	C179.599884,69.933235 169.846634,62.594341 159.086029,57.304588 
	C143.290100,49.539528 126.556282,43.947983 108.960983,41.473270 
	C98.426796,39.991680 88.029282,37.957706 77.208717,39.897442 
	C60.135609,42.958027 44.033573,58.083981 40.599167,75.066803 
	C35.096287,90.831955 32.302635,106.938156 31.185167,123.201019 
	C30.288696,136.247681 31.010262,149.406265 31.068441,162.514938 
	C31.070744,163.033264 31.637669,163.549072 31.966131,164.522171 
	C32.662979,172.901199 33.132343,180.848618 34.085663,188.737564 
	C34.632904,193.266083 35.965164,197.699753 36.798271,202.475098 
	C20.329935,227.383469 8.340470,253.808899 2.905706,283.006256 
	C2.764873,283.762878 1.656928,284.339447 1.000002,285.000000 
z"/>
<path fill="#FDBC73" opacity="1.000000" stroke="none" 
	d="
M477.067688,202.102112 
	C493.376740,227.197021 505.857971,253.884979 511.065186,283.615387 
	C511.190613,284.331421 511.881287,284.948456 512.654175,285.305847 
	C513.000000,301.354218 513.000000,317.708466 512.654114,334.225647 
	C511.893677,334.888275 511.256866,335.325897 511.097534,335.896820 
	C508.021759,346.916290 505.657837,358.190643 501.751038,368.903290 
	C498.919098,376.668610 494.057892,383.693939 489.670471,391.009613 
	C488.081024,391.070953 486.907440,391.085388 485.766602,391.285919 
	C470.026550,394.052368 454.293762,395.457092 438.214752,394.241730 
	C411.666779,392.235107 387.163513,384.442535 364.196716,371.155609 
	C343.306122,359.069855 328.670410,341.905823 320.871826,319.052765 
	C313.682465,297.985077 314.229523,276.928589 321.527008,255.990936 
	C327.315399,239.383194 330.386414,222.214691 330.702484,204.719940 
	C331.037720,186.167175 327.858002,168.025055 321.681793,150.447678 
	C315.956604,134.153839 307.360443,119.388573 298.373566,105.027435 
	C307.963226,106.196999 317.277863,106.634964 326.193115,108.753540 
	C342.539825,112.638054 358.650940,117.514023 375.193146,122.124947 
	C387.705688,128.360214 400.239441,133.838730 411.983856,140.673553 
	C430.632874,151.526581 446.904816,165.458496 460.737305,182.109070 
	C466.235748,188.727722 471.627411,195.435120 477.067688,202.102112 
M419.435364,307.808411 
	C430.946716,302.926361 443.046387,302.642120 455.275269,303.065399 
	C460.212189,303.236298 463.596039,300.157745 463.824677,295.866028 
	C464.050446,291.627991 460.907440,288.090820 455.988007,287.946960 
	C448.685364,287.733368 441.311523,287.481964 434.069916,288.231598 
	C423.051056,289.372192 412.512604,292.531586 403.276886,298.986755 
	C399.177612,301.851837 398.294281,306.145111 400.687744,309.857330 
	C403.018066,313.471649 407.469299,314.274048 411.705902,311.881561 
	C414.021820,310.573700 416.371582,309.325775 419.435364,307.808411 
M422.482544,331.963928 
	C416.572205,332.707123 410.577393,333.061096 404.779083,334.320282 
	C400.376099,335.276428 398.199463,339.651062 399.211151,343.546051 
	C400.250916,347.549164 403.893768,349.745758 408.529358,349.070374 
	C410.660950,348.759827 412.755310,348.186066 414.889099,347.899353 
	C428.003448,346.137421 440.257446,349.485809 452.314667,354.164703 
	C457.617310,356.222473 461.861115,354.603729 463.561096,350.211151 
	C465.172546,346.047363 463.199402,342.034393 458.220245,339.959534 
	C447.094849,335.323517 435.603546,332.180176 422.482544,331.963928 
M353.067108,319.576294 
	C359.852814,322.131439 364.681915,319.084717 364.874512,311.924408 
	C365.035187,305.952209 365.047638,299.967163 364.848450,293.997040 
	C364.694672,289.387512 361.603058,286.296448 357.470428,286.065887 
	C353.384918,285.837891 349.643066,288.724213 349.393433,293.231750 
	C349.017822,300.015045 349.076141,306.846771 349.444641,313.631012 
	C349.546570,315.507843 351.400970,317.289490 353.067108,319.576294 
z"/>
<path fill="#000000" opacity="1.000000" stroke="none" 
	d="
M490.101562,391.049255 
	C494.057892,383.693939 498.919098,376.668610 501.751038,368.903290 
	C505.657837,358.190643 508.021759,346.916290 511.097534,335.896820 
	C511.256866,335.325897 511.893677,334.888275 512.654114,334.694275 
	C513.000000,394.303406 513.000000,453.606812 513.000000,512.955078 
	C342.449341,512.955078 171.898651,512.955078 1.000000,512.955078 
	C1.000000,453.979553 1.000000,394.958435 1.402985,335.381714 
	C2.142932,335.165344 2.674604,335.449554 2.788474,335.851929 
	C5.890943,346.815704 8.309125,358.027557 12.230681,368.686951 
	C15.112394,376.519928 19.953382,383.632080 23.954115,391.424042 
	C29.116497,398.828003 33.680470,406.383911 39.488144,412.817047 
	C53.439396,428.270905 69.869415,440.447296 88.993385,449.135071 
	C106.127029,456.918671 124.248329,460.956726 142.417175,464.940491 
	C151.876526,467.014587 161.474213,468.521820 171.062424,469.922089 
	C177.653656,470.884644 184.335983,471.223236 191.413284,471.913300 
	C206.244675,472.990631 220.626862,474.518829 235.038910,474.891388 
	C265.133270,475.669342 295.210968,474.760254 325.202209,471.965210 
	C333.951782,471.149750 342.714447,470.228088 351.376434,468.786224 
	C360.902740,467.200470 370.308533,464.901733 379.787048,463.015350 
	C396.823395,459.624878 413.505554,454.983978 429.125580,447.326508 
	C446.383759,438.865875 461.679199,427.491608 474.314972,412.982635 
	C480.205597,406.218781 484.877350,398.393463 490.101562,391.049255 
z"/>
<path fill="#4C7187" opacity="1.000000" stroke="none" 
	d="
M23.921247,391.065460 
	C19.953382,383.632080 15.112394,376.519928 12.230681,368.686951 
	C8.309125,358.027557 5.890943,346.815704 2.788474,335.851929 
	C2.674604,335.449554 2.142932,335.165344 1.402985,334.913025 
	C1.000000,318.645782 1.000000,302.291534 1.000002,285.468658 
	C1.656928,284.339447 2.764873,283.762878 2.905706,283.006256 
	C8.340470,253.808899 20.329935,227.383469 37.104668,202.313141 
	C50.560703,183.212067 65.588318,166.493027 84.219009,153.188080 
	C83.558174,157.076370 82.841125,160.795639 81.708145,164.383591 
	C74.271149,187.935181 70.538696,212.177139 70.244133,236.738770 
	C70.040070,253.753342 72.060608,270.794586 72.658920,287.875946 
	C67.345688,287.953064 62.457794,287.883484 57.576595,288.032837 
	C53.604950,288.154358 50.996769,290.419525 50.216839,294.196930 
	C49.461765,297.853973 51.169636,300.739075 54.586800,302.184631 
	C56.182594,302.859741 58.100769,302.870361 59.885422,302.983459 
	C65.583229,303.344543 71.286949,303.612488 77.038239,304.311951 
	C77.919586,307.889282 78.769211,311.066498 79.578644,314.253906 
	C81.075539,320.148285 82.548897,326.048645 83.671585,332.119507 
	C74.107040,334.844971 64.787117,337.062103 55.776325,340.174286 
	C53.376446,341.003174 50.870228,344.369843 50.367626,346.951874 
	C49.960709,349.042419 51.943146,353.001740 53.844662,353.799835 
	C56.514023,354.920227 60.186535,354.331116 63.261124,353.678070 
	C72.573456,351.700195 81.804443,349.339355 91.060120,347.497467 
	C91.621864,349.408600 92.042198,351.025574 92.782791,352.479431 
	C98.804390,364.300690 104.885941,376.091431 110.633408,388.104431 
	C94.986763,392.836426 79.292229,395.427094 63.353565,394.790741 
	C50.180882,394.264893 37.063267,392.359528 23.921247,391.065460 
z"/>
<path fill="#FFF2E3" opacity="1.000000" stroke="none" 
	d="
M489.670471,391.009644 
	C484.877350,398.393463 480.205597,406.218781 474.314972,412.982635 
	C461.679199,427.491608 446.383759,438.865875 429.125580,447.326508 
	C413.505554,454.983978 396.823395,459.624878 379.787048,463.015350 
	C370.308533,464.901733 360.902740,467.200470 351.376434,468.786224 
	C342.714447,470.228088 333.951782,471.149750 325.202209,471.965210 
	C295.210968,474.760254 265.133270,475.669342 235.038910,474.891388 
	C220.626862,474.518829 206.244675,472.990631 191.242462,471.632874 
	C189.474976,470.353333 188.295319,469.449158 187.155945,468.496765 
	C174.685135,458.073608 161.815079,448.081299 149.899017,437.057953 
	C142.145798,429.885620 135.385849,421.516144 128.913193,413.118561 
	C122.766701,405.144135 117.572960,396.435333 112.283249,387.864014 
	C123.458466,383.067383 134.589508,379.010162 145.100174,373.720215 
	C162.574310,364.925629 176.691116,352.222900 186.168686,334.818390 
	C200.501633,308.497498 201.181137,281.438232 191.743591,253.286865 
	C180.040634,218.378021 180.430939,183.344650 193.009827,148.568451 
	C198.656387,132.957642 207.074966,118.849709 216.302765,104.914940 
	C216.694489,104.508507 216.867264,104.225616 217.040039,103.942726 
	C233.109177,103.294907 249.175385,102.261299 265.248535,102.138504 
	C275.508179,102.060135 285.778137,103.329803 296.588867,104.200249 
	C297.395630,104.621552 297.657043,104.837669 297.918427,105.053787 
	C307.360443,119.388573 315.956604,134.153839 321.681793,150.447678 
	C327.858002,168.025055 331.037720,186.167175 330.702484,204.719940 
	C330.386414,222.214691 327.315399,239.383194 321.527008,255.990936 
	C314.229523,276.928589 313.682465,297.985077 320.871826,319.052765 
	C328.670410,341.905823 343.306122,359.069855 364.196716,371.155609 
	C387.163513,384.442535 411.666779,392.235107 438.214752,394.241730 
	C454.293762,395.457092 470.026550,394.052368 485.766602,391.285919 
	C486.907440,391.085388 488.081024,391.070953 489.670471,391.009644 
M291.567963,351.116486 
	C296.514099,346.764404 299.515839,341.394836 300.281555,334.790894 
	C300.972168,328.834900 298.673279,324.837311 293.989990,324.087372 
	C289.288513,323.334503 285.907471,326.471680 284.996277,332.432343 
	C284.144104,338.007263 280.171600,341.778717 275.081818,341.845154 
	C270.018005,341.911255 265.847137,338.107025 264.988556,332.639099 
	C264.073242,326.809937 261.570221,324.053833 257.166138,324.025848 
	C252.819504,323.998230 250.628433,326.885315 249.055191,332.535614 
	C248.240311,335.462250 246.349060,338.847382 243.909348,340.415863 
	C237.549637,344.504486 230.476730,339.975586 229.099457,331.493011 
	C228.296066,326.544830 225.090790,323.663544 220.810150,324.041595 
	C216.510742,324.421326 213.817383,327.811981 213.859406,332.791809 
	C213.963104,345.081024 224.389297,356.069977 236.670624,357.117371 
	C244.581299,357.791992 251.332901,355.185455 257.119019,350.299347 
	C269.456879,359.293671 279.720398,359.596069 291.567963,351.116486 
z"/>
<path fill="#60819A" opacity="1.000000" stroke="none" 
	d="
M40.941097,74.878670 
	C44.033573,58.083981 60.135609,42.958027 77.208717,39.897442 
	C88.029282,37.957706 98.426796,39.991680 108.960983,41.473270 
	C126.556282,43.947983 143.290100,49.539528 159.086029,57.304588 
	C169.846634,62.594341 179.599884,69.933235 189.533569,76.673660 
	C166.841827,80.622520 145.058640,86.579117 123.988579,95.069656 
	C122.475746,95.679276 121.281624,97.079781 119.703308,98.063858 
	C119.168961,97.883728 118.856827,97.813744 118.315033,97.522934 
	C105.238091,86.075363 90.389877,78.637932 73.627586,76.215149 
	C62.891979,74.663445 51.847248,75.250435 40.941097,74.878670 
z"/>
<path fill="#FDBC73" opacity="1.000000" stroke="none" 
	d="
M323.889343,76.957390 
	C340.050293,63.573475 358.481293,54.482765 378.323120,47.989719 
	C391.040924,43.827946 404.070160,41.521881 417.332825,39.796524 
	C427.023651,38.535828 436.140503,39.016830 445.166534,42.598358 
	C459.794281,48.402645 468.685883,59.241665 472.594269,74.553917 
	C468.552246,74.667595 464.923889,74.092590 461.295197,74.090607 
	C436.858154,74.077232 414.900421,81.222466 395.764587,97.048904 
	C395.346954,97.049164 395.179901,97.048927 394.681030,96.897926 
	C392.815216,96.129097 391.286072,95.498672 389.746490,94.894844 
	C368.441650,86.538918 346.609589,80.117332 323.889343,76.957390 
z"/>
<path fill="#FD8B9B" opacity="1.000000" stroke="none" 
	d="
M395.012878,97.048698 
	C395.179901,97.048927 395.346954,97.049164 395.979736,97.313324 
	C397.921661,98.327652 399.365723,99.151009 400.878876,99.817490 
	C422.548737,109.362389 442.264404,122.004364 460.034668,137.607635 
	C467.865234,144.483322 475.258331,151.857269 482.850037,159.005005 
	C482.179291,166.818909 481.685028,174.653275 480.782990,182.440384 
	C480.036652,188.883026 478.808929,195.269897 477.431091,201.891815 
	C471.627411,195.435120 466.235748,188.727722 460.737305,182.109070 
	C446.904816,165.458496 430.632874,151.526581 411.983856,140.673553 
	C400.239441,133.838730 387.705688,128.360214 375.268921,121.780296 
	C381.678802,113.207779 388.345856,105.128235 395.012878,97.048698 
z"/>
<path fill="#FC8B9B" opacity="1.000000" stroke="none" 
	d="
M118.530907,97.805206 
	C118.856827,97.813744 119.168961,97.883728 119.869690,98.347771 
	C126.566696,106.114265 132.861313,113.548157 139.055939,121.328522 
	C136.941040,122.719887 134.990158,123.919174 132.901154,124.785385 
	C115.366028,132.056366 98.998596,141.340530 83.970406,152.958313 
	C65.588318,166.493027 50.560703,183.212067 37.250420,202.014145 
	C35.965164,197.699753 34.632904,193.266083 34.085663,188.737564 
	C33.132343,180.848618 32.662979,172.901199 31.975592,164.118484 
	C33.532032,160.122238 34.483009,156.408218 36.776604,153.943695 
	C50.971546,138.690842 67.013664,125.522575 84.904938,114.898834 
	C95.693130,108.492882 107.294785,103.456833 118.530907,97.805206 
z"/>
<path fill="#FDB2BD" opacity="1.000000" stroke="none" 
	d="
M118.315033,97.522934 
	C107.294785,103.456833 95.693130,108.492882 84.904938,114.898834 
	C67.013664,125.522575 50.971546,138.690842 36.776604,153.943695 
	C34.483009,156.408218 33.532032,160.122238 31.950972,163.662369 
	C31.637669,163.549072 31.070744,163.033264 31.068441,162.514938 
	C31.010262,149.406265 30.288696,136.247681 31.185167,123.201019 
	C32.302635,106.938156 35.096287,90.831955 40.599167,75.066803 
	C51.847248,75.250435 62.891979,74.663445 73.627586,76.215149 
	C90.389877,78.637932 105.238091,86.075363 118.315033,97.522934 
z"/>
<path fill="#FDB2BD" opacity="1.000000" stroke="none" 
	d="
M482.917603,158.538910 
	C475.258331,151.857269 467.865234,144.483322 460.034668,137.607635 
	C442.264404,122.004364 422.548737,109.362389 400.878876,99.817490 
	C399.365723,99.151009 397.921661,98.327652 396.230316,97.312820 
	C414.900421,81.222466 436.858154,74.077232 461.295197,74.090607 
	C464.923889,74.092590 468.552246,74.667595 472.626831,74.942726 
	C475.715240,85.468437 479.616638,95.900307 480.711456,106.618858 
	C482.453094,123.669678 482.323395,140.911652 482.917603,158.538910 
z"/>
<path fill="#FDA641" opacity="1.000000" stroke="none" 
	d="
M394.681030,96.897926 
	C388.345856,105.128235 381.678802,113.207779 374.936035,121.631973 
	C358.650940,117.514023 342.539825,112.638054 326.193115,108.753540 
	C317.277863,106.634964 307.963226,106.196999 298.373566,105.027435 
	C297.657043,104.837669 297.395630,104.621552 297.022217,104.173119 
	C304.356720,93.712898 313.449036,85.107124 323.574097,77.082985 
	C346.609589,80.117332 368.441650,86.538918 389.746490,94.894844 
	C391.286072,95.498672 392.815216,96.129097 394.681030,96.897926 
z"/>
<path fill="#4D7187" opacity="1.000000" stroke="none" 
	d="
M139.155945,120.982056 
	C132.861313,113.548157 126.566696,106.114265 120.105690,98.396469 
	C121.281624,97.079781 122.475746,95.679276 123.988579,95.069656 
	C145.058640,86.579117 166.841827,80.622520 189.688507,76.985199 
	C200.197128,84.547974 208.862793,93.553024 216.911407,103.627983 
	C216.867264,104.225616 216.694489,104.508507 215.844147,104.901352 
	C213.005219,105.034248 210.799591,104.782463 208.689362,105.122581 
	C187.436523,108.548035 166.233566,112.193115 145.951706,119.813904 
	C143.838501,120.607933 141.428329,120.611656 139.155945,120.982056 
z"/>
<path fill="#495963" opacity="1.000000" stroke="none" 
	d="
M419.070740,307.929626 
	C416.371582,309.325775 414.021820,310.573700 411.705902,311.881561 
	C407.469299,314.274048 403.018066,313.471649 400.687744,309.857330 
	C398.294281,306.145111 399.177612,301.851837 403.276886,298.986755 
	C412.512604,292.531586 423.051056,289.372192 434.069916,288.231598 
	C441.311523,287.481964 448.685364,287.733368 455.988007,287.946960 
	C460.907440,288.090820 464.050446,291.627991 463.824677,295.866028 
	C463.596039,300.157745 460.212189,303.236298 455.275269,303.065399 
	C443.046387,302.642120 430.946716,302.926361 419.070740,307.929626 
z"/>
<path fill="#485963" opacity="1.000000" stroke="none" 
	d="
M422.966431,331.966553 
	C435.603546,332.180176 447.094849,335.323517 458.220245,339.959534 
	C463.199402,342.034393 465.172546,346.047363 463.561096,350.211151 
	C461.861115,354.603729 457.617310,356.222473 452.314667,354.164703 
	C440.257446,349.485809 428.003448,346.137421 414.889099,347.899353 
	C412.755310,348.186066 410.660950,348.759827 408.529358,349.070374 
	C403.893768,349.745758 400.250916,347.549164 399.211151,343.546051 
	C398.199463,339.651062 400.376099,335.276428 404.779083,334.320282 
	C410.577393,333.061096 416.572205,332.707123 422.966431,331.966553 
z"/>
<path fill="#4C5B64" opacity="1.000000" stroke="none" 
	d="
M352.759216,319.345551 
	C351.400970,317.289490 349.546570,315.507843 349.444641,313.631012 
	C349.076141,306.846771 349.017822,300.015045 349.393433,293.231750 
	C349.643066,288.724213 353.384918,285.837891 357.470428,286.065887 
	C361.603058,286.296448 364.694672,289.387512 364.848450,293.997040 
	C365.047638,299.967163 365.035187,305.952209 364.874512,311.924408 
	C364.681915,319.084717 359.852814,322.131439 352.759216,319.345551 
z"/>
<path fill="#FFE0B7" opacity="1.000000" stroke="none" 
	d="
M111.960274,388.049469 
	C117.572960,396.435333 122.766701,405.144135 128.913193,413.118561 
	C135.385849,421.516144 142.145798,429.885620 149.899017,437.057953 
	C161.815079,448.081299 174.685135,458.073608 187.155945,468.496765 
	C188.295319,469.449158 189.474976,470.353333 190.806778,471.560303 
	C184.335983,471.223236 177.653656,470.884644 171.062424,469.922089 
	C161.474213,468.521820 151.876526,467.014587 142.417175,464.940491 
	C124.248329,460.956726 106.127029,456.918671 88.993385,449.135071 
	C69.869415,440.447296 53.439396,428.270905 39.488144,412.817047 
	C33.680470,406.383911 29.116497,398.828003 23.954121,391.424042 
	C37.063267,392.359528 50.180882,394.264893 63.353565,394.790741 
	C79.292229,395.427094 94.986763,392.836426 110.887131,388.138123 
	C111.624542,387.989075 111.792404,388.019287 111.960274,388.049469 
z"/>
<path fill="#60819A" opacity="1.000000" stroke="none" 
	d="
M112.283249,387.864014 
	C111.792404,388.019287 111.624542,387.989075 111.202950,387.925171 
	C104.885941,376.091431 98.804390,364.300690 92.782791,352.479431 
	C92.042198,351.025574 91.621864,349.408600 91.492912,347.469849 
	C95.837311,347.621613 99.728493,348.424133 103.651176,348.631927 
	C106.322083,348.773407 109.657471,348.924438 111.556198,347.525024 
	C113.418648,346.152374 115.052277,342.549957 114.571762,340.427460 
	C114.031212,338.039734 111.254501,334.771545 109.030106,334.399414 
	C100.791237,333.021057 92.379097,332.678375 84.032059,331.946533 
	C82.548897,326.048645 81.075539,320.148285 79.578644,314.253906 
	C78.769211,311.066498 77.919586,307.889282 77.477478,304.317749 
	C86.759621,304.059418 94.624084,307.366058 102.163544,311.733032 
	C107.557678,314.857361 114.003349,312.516968 114.284973,306.760895 
	C114.415504,304.093079 112.358604,300.347473 110.112740,298.698639 
	C99.174789,290.668457 86.310089,288.476746 73.087158,287.823914 
	C72.060608,270.794586 70.040070,253.753342 70.244133,236.738770 
	C70.538696,212.177139 74.271149,187.935181 81.708145,164.383591 
	C82.841125,160.795639 83.558174,157.076370 84.219009,153.188080 
	C98.998596,141.340530 115.366028,132.056366 132.901154,124.785385 
	C134.990158,123.919174 136.941040,122.719887 139.055939,121.328522 
	C141.428329,120.611656 143.838501,120.607933 145.951706,119.813904 
	C166.233566,112.193115 187.436523,108.548035 208.689362,105.122581 
	C210.799591,104.782463 213.005219,105.034248 215.625183,105.024887 
	C207.074966,118.849709 198.656387,132.957642 193.009827,148.568451 
	C180.430939,183.344650 180.040634,218.378021 191.743591,253.286865 
	C201.181137,281.438232 200.501633,308.497498 186.168686,334.818390 
	C176.691116,352.222900 162.574310,364.925629 145.100174,373.720215 
	C134.589508,379.010162 123.458466,383.067383 112.283249,387.864014 
M161.468048,287.927399 
	C154.773514,284.248077 149.497116,286.912415 149.098602,294.459442 
	C148.792694,300.252838 148.921204,306.077454 149.057709,311.883453 
	C149.182938,317.210144 152.721863,321.018250 157.122528,320.905457 
	C161.151428,320.802246 164.842896,316.460052 164.931824,311.504425 
	C165.024124,306.360626 165.267487,301.186676 164.823715,296.079834 
	C164.597656,293.478424 163.008881,290.995392 161.468048,287.927399 
z"/>
<path fill="#455864" opacity="1.000000" stroke="none" 
	d="
M72.658920,287.875946 
	C86.310089,288.476746 99.174789,290.668457 110.112740,298.698639 
	C112.358604,300.347473 114.415504,304.093079 114.284973,306.760895 
	C114.003349,312.516968 107.557678,314.857361 102.163544,311.733032 
	C94.624084,307.366058 86.759621,304.059418 77.427628,303.922180 
	C71.286949,303.612488 65.583229,303.344543 59.885422,302.983459 
	C58.100769,302.870361 56.182594,302.859741 54.586800,302.184631 
	C51.169636,300.739075 49.461765,297.853973 50.216839,294.196930 
	C50.996769,290.419525 53.604950,288.154358 57.576595,288.032837 
	C62.457794,287.883484 67.345688,287.953064 72.658920,287.875946 
z"/>
<path fill="#455764" opacity="1.000000" stroke="none" 
	d="
M83.671585,332.119507 
	C92.379097,332.678375 100.791237,333.021057 109.030106,334.399414 
	C111.254501,334.771545 114.031212,338.039734 114.571762,340.427460 
	C115.052277,342.549957 113.418648,346.152374 111.556198,347.525024 
	C109.657471,348.924438 106.322083,348.773407 103.651176,348.631927 
	C99.728493,348.424133 95.837311,347.621613 91.499916,347.100098 
	C81.804443,349.339355 72.573456,351.700195 63.261124,353.678070 
	C60.186535,354.331116 56.514023,354.920227 53.844662,353.799835 
	C51.943146,353.001740 49.960709,349.042419 50.367626,346.951874 
	C50.870228,344.369843 53.376446,341.003174 55.776325,340.174286 
	C64.787117,337.062103 74.107040,334.844971 83.671585,332.119507 
z"/>
<path fill="#485A65" opacity="1.000000" stroke="none" 
	d="
M291.294189,351.351990 
	C279.720398,359.596069 269.456879,359.293671 257.119019,350.299347 
	C251.332901,355.185455 244.581299,357.791992 236.670624,357.117371 
	C224.389297,356.069977 213.963104,345.081024 213.859406,332.791809 
	C213.817383,327.811981 216.510742,324.421326 220.810150,324.041595 
	C225.090790,323.663544 228.296066,326.544830 229.099457,331.493011 
	C230.476730,339.975586 237.549637,344.504486 243.909348,340.415863 
	C246.349060,338.847382 248.240311,335.462250 249.055191,332.535614 
	C250.628433,326.885315 252.819504,323.998230 257.166138,324.025848 
	C261.570221,324.053833 264.073242,326.809937 264.988556,332.639099 
	C265.847137,338.107025 270.018005,341.911255 275.081818,341.845154 
	C280.171600,341.778717 284.144104,338.007263 284.996277,332.432343 
	C285.907471,326.471680 289.288513,323.334503 293.989990,324.087372 
	C298.673279,324.837311 300.972168,328.834900 300.281555,334.790894 
	C299.515839,341.394836 296.514099,346.764404 291.294189,351.351990 
z"/>
<path fill="#465865" opacity="1.000000" stroke="none" 
	d="
M161.752075,288.193115 
	C163.008881,290.995392 164.597656,293.478424 164.823715,296.079834 
	C165.267487,301.186676 165.024124,306.360626 164.931824,311.504425 
	C164.842896,316.460052 161.151428,320.802246 157.122528,320.905457 
	C152.721863,321.018250 149.182938,317.210144 149.057709,311.883453 
	C148.921204,306.077454 148.792694,300.252838 149.098602,294.459442 
	C149.497116,286.912415 154.773514,284.248077 161.752075,288.193115 
z"/>
</svg>