<?xml version="1.0" encoding="iso-8859-1"?>
<!-- Uploaded to: SVG Repo, www.svgrepo.com, Generator: SVG Repo Mixer Tools -->
<!DOCTYPE svg PUBLIC "-//W3C//DTD SVG 1.1//EN" "http://www.w3.org/Graphics/SVG/1.1/DTD/svg11.dtd">
<svg fill="#000000" version="1.1" id="Capa_1" xmlns="http://www.w3.org/2000/svg" xmlns:xlink="http://www.w3.org/1999/xlink" 
	 width="800px" height="800px" viewBox="0 0 88.761 88.761"
	 xml:space="preserve">
<g>
	<path d="M88.748,28.822C87.433,14.123,76.639,6.532,67.17,5.703C55.521,4.682,49.389,8.26,44.38,13.056
		C39.372,8.257,33.218,4.677,21.59,5.7C12.116,6.53,1.324,14.121,0.014,28.822L0,33.34l0.011,0.303
		C1.346,49.021,15.246,64.855,42.51,82.055l1.868,1.182l1.869-1.182c27.263-17.199,41.166-33.037,42.498-48.411l0.017-4.511
		L88.748,28.822z M47.015,28.7c1.129-4.202,4.505-3.702,7.543-2.884c3.036,0.813,4.585,1.631,3.461,5.835
		c-1.129,4.205-4.505,10.208-7.544,9.393C47.437,40.23,45.889,32.906,47.015,28.7z M34.206,25.813
		c3.039-0.817,6.415-1.315,7.542,2.885c1.124,4.205-0.423,11.532-3.461,12.343c-3.038,0.815-6.412-5.19-7.542-9.393
		C29.618,27.447,31.166,26.627,34.206,25.813z M35.301,51.014c-2.415,1.394-9.188-0.183-11.114-3.521
		c-1.925-3.34-1.54-6.414,0.878-7.811c2.416-1.392,5.928-0.573,7.853,2.772C34.85,45.79,37.714,49.627,35.301,51.014z M44.38,63.181
		c-4.354-0.004-7.883-4.644-7.883-7.157c0-2.517,3.53-1.953,7.883-1.953c4.353,0.005,7.884-0.563,7.884,1.953
		C52.264,58.534,48.733,63.181,44.38,63.181z M64.573,47.492c-1.926,3.344-8.698,4.915-11.114,3.526
		c-2.408-1.392,0.454-5.227,2.384-8.562c1.924-3.345,5.44-4.162,7.854-2.773C66.115,41.081,66.498,44.155,64.573,47.492z"/>
</g>
</svg>