<?xml version="1.0" encoding="iso-8859-1"?>
<!-- Uploaded to: SVG Repo, www.svgrepo.com, Generator: SVG Repo Mixer Tools -->
<svg fill="#000000" height="800px" width="800px" version="1.1" id="Capa_1" xmlns="http://www.w3.org/2000/svg" xmlns:xlink="http://www.w3.org/1999/xlink" 
	 viewBox="0 0 489.401 489.401" xml:space="preserve">
<g>
	<path d="M461.2,31.248h-433c-15.6,0-28.2,12.6-28.2,28.2v270c0,15.6,12.6,28.2,28.2,28.2h40.1v93.4c0,6.3,7.7,9.5,12.1,5l98.4-98.4
		h282.4c15.6,0,28.2-12.6,28.2-28.2v-270C489.5,43.848,476.8,31.248,461.2,31.248z M256.9,235.948l-36.9,36.7l-36.7-36.9l-35.4-35.6
		l36.9-36.7l35.4,35.6l84.6-84.1l36.7,36.9L256.9,235.948z"/>
</g>
</svg>